{"title":"Hellion 2014 HDRIP x264 AC3 TiTAN","uid":10377062,"size":820246659,"categoryP":"video","categoryS":"movies","magnet":"?xt=urn:btih:b168e89f665cd9a5a808c506ab16a7947333f7ac&amp;dn=Hellion+2014+HDRIP+x264+AC3+TiTAN&amp;tr=udp%3A%2F%2Ftracker.openbittorrent.com%3A80&amp;tr=udp%3A%2F%2Fopen.demonii.com%3A1337&amp;tr=udp%3A%2F%2Ftracker.coppersurfer.tk%3A6969&amp;tr=udp%3A%2F%2Fexodus.desync.com%3A6969","seeders":3,"leechers":1,"uploader":"xxxlavalxxx","files":-1,"time":1403020395,"description":"[IMG]http://i.imgur.com/VeDypuG.jpg[/IMG]\n\n &lt;a href=&quot;\nhttp://www.imdb.com/title/tt3186318/&quot; rel=&quot;nofollow&quot; target=&quot;_NEW&quot;&gt;\nhttp://www.imdb.com/title/tt3186318/&lt;/a&gt;\n\n\nWhen motocross and heavy metal obsessed thirteen-year-old Jacob's increasing delinquent behavior forces CPS to place his little brother, Wes, with his aunt, Jacob and his emotionally absent father, Hollis, must finally take responsibility for their actions and for each other in order to bring Wes home. \n\nDirector: Kat Candler\nWriter: Kat Candler\nStars: Aaron Paul, Juliette Lewis, Josh Wiggins\nGenres: Drama | Thriller\nCountry: USA\nLanguage: English\n\n\n\nSource: Itunes\n\nGeneral\n\nFormat                                   : Matroska\nFormat version                           : Version 2\nFile size                                : 782 MiB\nDuration                                 : 1h 39mn\nOverall bit rate mode                    : Variable\nOverall bit rate                         : 1 101 Kbps\nEncoded date                             : UTC 2014-06-17 12:44:35\nWriting application                      : mkvmerge v7.0.0 ('Where We Going') 32bit built on Jun  9 2014 15:08:34\nWriting library                          : libebml v1.3.0 + libmatroska v1.4.1\nDURATION                                 : 01:39:19.232000000\n\n\nVideo\nID                                       : 1\nFormat                                   : AVC\nFormat/Info                              : Advanced Video Codec\nFormat profile                           : &lt;a class=&quot;__cf_email__&quot; href=&quot;/cdn-cgi/l/email-protection&quot; data-cfemail=&quot;c880a1afa08884fce6f9&quot;&gt;[email&amp;#160;protected]&lt;/a&gt;&lt;script cf-hash='f9e31' type=&quot;text/javascript&quot;&gt;\n/* &lt;![CDATA[ */!function(){try{var t=&quot;currentScript&quot;in document?document.currentScript:function(){for(var t=document.getElementsByTagName(&quot;script&quot;),e=t.length;e--;)if(t[e].getAttribute(&quot;cf-hash&quot;))return t[e]}();if(t&amp;&amp;t.previousSibling){var e,r,n,i,c=t.previousSibling,a=c.getAttribute(&quot;data-cfemail&quot;);if(a){for(e=&quot;&quot;,r=parseInt(a.substr(0,2),16),n=2;a.length-n;n+=2)i=parseInt(a.substr(n,2),16)^r,e+=String.fromCharCode(i);e=document.createTextNode(e),c.parentNode.replaceChild(e,c)}}}catch(u){}}();/* ]]&gt; */&lt;/script&gt;\nFormat settings, CABAC                   : Yes\nFormat settings, ReFrames                : 3 frames\nCodec ID                                 : V_MPEG4/ISO/AVC\nDuration                                 : 1h 39mn\nBit rate mode                            : Variable\nBit rate                                 : 855 Kbps\nMaximum bit rate                         : 40.0 Mbps\nWidth                                    : 720 pixels\nHeight                                   : 304 pixels\nDisplay aspect ratio                     : 2.35:1\nFrame rate mode                          : Constant\nFrame rate                               : 23.976 fps\nColor space                              : YUV\nChroma subsampling                       : 4:2:0\nBit depth                                : 8 bits\nScan type                                : Progressive\nBits/(Pixel*Frame)                       : 0.163\nStream size                              : 608 MiB (78%)\nWriting library                          : x264 core 142 r2431 ac76440\nDefault                                  : Yes\nForced                                   : No\nColor primaries                          : BT.709\nTransfer characteristics                 : BT.709\nMatrix coefficients                      : BT.709\n\nAudio\nID                                       : 2\nFormat                                   : AC-3\nFormat/Info                              : Audio Coding 3\nMode extension                           : CM (complete main)\nFormat settings, Endianness              : Big\nCodec ID                                 : A_AC3\nDuration                                 : 1h 39mn\nBit rate mode                            : Constant\nBit rate                                 : 224 Kbps\nChannel(s)                               : 6 channels\nChannel positions                        : Front: L C R, Side: L R, LFE\nSampling rate                            : 48.0 KHz\nBit depth                                : 16 bits\nCompression mode                         : Lossy\nStream size                              : 159 MiB (20%)\nDefault                                  : Yes\nForced                                   : No\n\n\n\n\nscreens\n &lt;a href=&quot;\nhttp://i.imgur.com/y77P42V.png&quot; rel=&quot;nofollow&quot; target=&quot;_NEW&quot;&gt;\nhttp://i.imgur.com/y77P42V.png&lt;/a&gt; &lt;a href=&quot;\nhttp://i.imgur.com/yVxWquB.png&quot; rel=&quot;nofollow&quot; target=&quot;_NEW&quot;&gt;\nhttp://i.imgur.com/yVxWquB.png&lt;/a&gt; &lt;a href=&quot;\nhttp://i.imgur.com/53qDZ86.png&quot; rel=&quot;nofollow&quot; target=&quot;_NEW&quot;&gt;\nhttp://i.imgur.com/53qDZ86.png&lt;/a&gt; &lt;a href=&quot;\nhttp://i.imgur.com/ExTlkb4.png&quot; rel=&quot;nofollow&quot; target=&quot;_NEW&quot;&gt;\nhttp://i.imgur.com/ExTlkb4.png&lt;/a&gt; &lt;a href=&quot;\nhttp://i.imgur.com/UgWoTkX.png&quot; rel=&quot;nofollow&quot; target=&quot;_NEW&quot;&gt;\nhttp://i.imgur.com/UgWoTkX.png&lt;/a&gt;\n\n","torrent":{"xt":"urn:btih:b168e89f665cd9a5a808c506ab16a7947333f7ac","amp;dn":"Hellion+2014+HDRIP+x264+AC3+TiTAN","amp;tr":["udp%3A%2F%2Ftracker.openbittorrent.com%3A80","udp%3A%2F%2Fopen.demonii.com%3A1337","udp%3A%2F%2Ftracker.coppersurfer.tk%3A6969","udp%3A%2F%2Fexodus.desync.com%3A6969"],"infoHash":"b168e89f665cd9a5a808c506ab16a7947333f7ac","infoHashBuffer":{"type":"Buffer","data":[177,104,232,159,102,92,217,165,168,8,197,6,171,22,167,148,115,51,247,172]},"announce":[],"urlList":[]}}